# xmcd CD database file
#
# Track frame offsets:
#	150
#	14073
#	33210
#	45550
#	89274
#	102413
#	123180
#	140893
#	165223
#	184663
#	208437
#
# Disc length: 3124 seconds
#
# Revision: 1
# Processed by: cddbd v1.5PL3 Copyright (c) Steve Scherf et al.
# Submitted via: CDex 1.51
#
DISCID=950c320b
DTITLE=Claude Bolling - La Garantie Obsèques
DYEAR=2004
DGENRE=Jazz
TTITLE0=Suivez le Chef
TTITLE1=In the Mood
TTITLE2=Paris en Colère
TTITLE3=Paris Bouquet
TTITLE4=La Marseillaise in Swing
TTITLE5=Borsalino
TTITLE6=Boogie
TTITLE7=Jazz Party
TTITLE8=The Entertainer
TTITLE9=Baroque and Blue
TTITLE10=Oh did'nt he ramble
EXTD=YEAR: 2004
EXTT0=
EXTT1=
EXTT2=
EXTT3=
EXTT4=
EXTT5=
EXTT6=
EXTT7=
EXTT8=
EXTT9=
EXTT10=
PLAYORDER=
